<?xml version="1.0" encoding="UTF-8" standalone="no"?><!DOCTYPE svg PUBLIC "-//W3C//DTD SVG 1.1//EN" "http://www.w3.org/Graphics/SVG/1.1/DTD/svg11.dtd"><svg width="100%" height="100%" viewBox="0 0 134 134" version="1.1" xmlns="http://www.w3.org/2000/svg" xmlns:xlink="http://www.w3.org/1999/xlink" xml:space="preserve" xmlns:serif="http://www.serif.com/" style="fill-rule:evenodd;clip-rule:evenodd;stroke-linejoin:round;stroke-miterlimit:2;"><rect id="Artboard9" x="0" y="0" width="133.333" height="133.333" style="fill:none;"/><clipPath id="_clip1"><rect x="0" y="0" width="133.333" height="133.333"/></clipPath><g clip-path="url(#_clip1)"><path d="M133.333,33.333c0,-18.397 -14.936,-33.333 -33.333,-33.333l-66.667,-0c-18.397,-0 -33.333,14.936 -33.333,33.333l0,66.667c0,18.397 14.936,33.333 33.333,33.333l66.667,0c18.397,0 33.333,-14.936 33.333,-33.333l0,-66.667Z" style="fill:#fff;"/><path d="M121.181,39.409c0,-15.043 -12.213,-27.257 -27.257,-27.257l-54.515,0c-15.043,0 -27.257,12.214 -27.257,27.257l0,54.515c0,15.044 12.214,27.257 27.257,27.257l54.515,0c15.044,0 27.257,-12.213 27.257,-27.257l0,-54.515Z" style="fill:#b2a88c;"/><g><g><path d="M41.741,78.915c0,7.445 2.274,13.283 6.823,17.516c4.549,4.232 10.58,6.348 18.093,6.348c7.534,0 13.573,-2.265 18.118,-6.796c4.545,-4.53 6.817,-10.679 6.817,-18.445l0,-46.984l-13.954,0l-0,46.984c-0,4.661 -0.952,8.248 -2.856,10.762c-1.904,2.514 -4.61,3.77 -8.118,3.77c-3.529,0 -6.237,-1.107 -8.126,-3.323c-1.89,-2.216 -2.834,-5.493 -2.834,-9.832l-0,-0.486l-13.963,-0l0,0.486Z" style="fill:#fff;fill-rule:nonzero;"/></g></g></g></svg>